<svg width="64" height="64" viewBox="0 0 64 64" fill="none" xmlns="http://www.w3.org/2000/svg">
<path d="M54.6021 52.0317C59.3376 46.6949 62.2223 39.6791 62.2223 31.9996C62.2223 24.0094 59.1 16.7394 54.0185 11.3297V11.3286C54.0143 11.3224 54.0081 11.3203 54.005 11.3151C48.7119 5.68852 41.296 2.08686 33.0474 1.80444L33.0464 1.8034L32.4576 1.78777C32.3054 1.78255 32.1532 1.77734 32.0001 1.77734C31.8469 1.77734 31.6947 1.78255 31.5426 1.78777L30.9558 1.8034L30.9548 1.80444C22.7062 2.08686 15.2903 5.68852 9.99723 11.3151C9.99307 11.3203 9.98681 11.3224 9.98369 11.3286L9.98265 11.3307C4.9001 16.7394 1.77783 24.0094 1.77783 31.9996C1.77783 39.6791 4.66249 46.6949 9.398 52.0317C9.40425 52.0411 9.40425 52.0515 9.41155 52.0609C9.43031 52.0869 9.4574 52.0994 9.4772 52.1234C14.7984 58.072 22.4332 61.9039 30.9537 62.1957L30.9548 62.1968L31.5415 62.2124C31.6947 62.2166 31.8469 62.2218 32.0001 62.2218C32.1532 62.2218 32.3054 62.2166 32.4576 62.2114L33.0443 62.1957L33.0453 62.1947C41.5753 61.9018 49.2184 58.0626 54.5396 52.1015C54.5531 52.0838 54.575 52.0786 54.5875 52.0598C54.5959 52.0515 54.5959 52.0411 54.6021 52.0317ZM3.88818 33.0417H16.3971C16.5148 37.4594 17.3777 41.752 18.9138 45.7736C15.95 46.846 13.1164 48.2841 10.461 50.0787C6.55607 45.4339 4.12579 39.5134 3.88818 33.0417ZM11.03 13.2649C13.6229 14.9511 16.3835 16.3017 19.263 17.3105C17.4996 21.5906 16.5242 26.2052 16.3971 30.9574H3.88818C4.13725 24.1762 6.79264 18.0015 11.03 13.2649ZM60.1119 30.9574H47.6031C47.4759 26.2052 46.5005 21.5906 44.7372 17.3105C47.6166 16.3017 50.3773 14.9511 52.9701 13.2649C57.2075 18.0015 59.8629 24.1762 60.1119 30.9574ZM30.9579 17.371C27.9451 17.2855 24.9875 16.8363 22.1299 16.0339C24.2423 11.7007 27.2249 7.78948 30.9579 4.53278V17.371ZM30.9579 19.4553V30.9574H18.4813C18.6095 26.4262 19.56 22.0314 21.2597 17.9567C24.3924 18.8644 27.6449 19.3667 30.9579 19.4553ZM33.0422 19.4553C36.3552 19.3667 39.6077 18.8654 42.7414 17.9567C44.4412 22.0314 45.3916 26.4262 45.5198 30.9574H33.0422V19.4553ZM33.0422 17.371V4.53278C36.7752 7.78948 39.7578 11.7007 41.8702 16.0339C39.0127 16.8363 36.055 17.2855 33.0422 17.371ZM43.8899 15.4003C41.8879 11.2056 39.1096 7.38409 35.6694 4.10862C41.7723 4.90691 47.2633 7.66651 51.4923 11.735C49.0912 13.2587 46.5442 14.4842 43.8899 15.4003ZM20.1102 15.4003C17.4559 14.4842 14.9089 13.2587 12.5088 11.735C16.7368 7.66651 22.2289 4.90691 28.3317 4.10862C24.8905 7.38409 22.1122 11.2056 20.1102 15.4003ZM18.4813 33.0417H30.9579V43.5028C27.5115 43.5945 24.135 44.1322 20.8897 45.1087C19.4234 41.2997 18.5991 37.2301 18.4813 33.0417ZM30.9579 45.5871V59.4664C26.9623 55.9804 23.8296 51.7451 21.6995 47.0471C24.6873 46.1665 27.7908 45.6767 30.9579 45.5871ZM33.0422 59.4664V45.5871C36.2093 45.6756 39.3128 46.1665 42.3006 47.0461C40.1705 51.7451 37.0378 55.9804 33.0422 59.4664ZM33.0422 43.5028V33.0417H45.5188C45.401 37.2301 44.5767 41.2997 43.1093 45.1098C39.8651 44.1322 36.4886 43.5945 33.0422 43.5028ZM47.6031 33.0417H60.1119C59.8743 39.5134 57.4451 45.4339 53.5391 50.0787C50.8837 48.2841 48.0501 46.846 45.0863 45.7736C46.6234 41.752 47.4853 37.4594 47.6031 33.0417ZM11.8773 51.6398C14.343 50.0016 16.9681 48.6843 19.7111 47.6995C21.738 52.2432 24.6477 56.3837 28.3307 59.8905C21.9204 59.0516 16.1834 56.0502 11.8773 51.6398ZM35.6694 59.8905C39.3524 56.3847 42.2621 52.2443 44.289 47.6995C47.032 48.6843 49.6561 50.0016 52.1228 51.6398C47.8167 56.0502 42.0797 59.0516 35.6694 59.8905Z" fill="#1990FF"></path>
</svg>